# xmcd CD database file
# Copyright (C) 1997 Ti Kan
# 
# Track frame offsets:
#     190
#     13715
#     26007
#     39752
#     54177
#     67767
#     79902
#     93450
#     106160
#     119572
#     132280
#     145865
#     158042
#     169445
#     181147
# 
# Disc length: 2607 seconds
# 
# Revision: 1
# Processed by: cddbd v1.4b41PL1 Copyright (c) Steve Scherf et al.
# Submitted via: DiscPlay 4.0.4
# 
DISCID=bb0a2d0f
DTITLE=Lightning Hopkins - Blues Train
DYEAR=1900
DGENRE=
TTITLE0=Hello Central
TTITLE1=Coffee Blues
TTITLE2=Long Way From Texas
TTITLE3=Mad As I Can Be
TTITLE4=New Short-Haired Woman
TTITLE5=Gotta Move
TTITLE6=Everybody's Down On Me
TTITLE7=Freight Train
TTITLE8=Prayin' Ground Blues
TTITLE9=Don't Think I'm Crazy
TTITLE10=Dirty House Blues
TTITLE11=Everything Happens To Me
TTITLE12=I Wonder Why
TTITLE13=Buck Dance Boogie
TTITLE14=Mad As I Can Be (Alt. Take)
EXTD=
EXTT0=
EXTT1=
EXTT2=
EXTT3=
EXTT4=
EXTT5=
EXTT6=
EXTT7=
EXTT8=
EXTT9=
EXTT10=
EXTT11=
EXTT12=
EXTT13=
EXTT14=
PLAYORDER=
